# xmcd
#
# Track frame offsets:
#	150
#	15497
#	35312
#	58356
#	72129
#	94043
#	110901
#	128147
#	142329
#	163737
#	179466
#	197530
#	213185
#
# Disc length: 3047 seconds
#
# Revision: 0
# Processed by: cddbd v1.5.2PL0 Copyright (c) Steve Scherf et al.
# Submitted via: EZCDAudioConverter 3.1.5.1
#
DISCID=bf0be50d
DTITLE=Various Artist - Σάν Ραδιόφωνο_CD1
DYEAR=2000
DGENRE=Greek
TTITLE0=Ευανθία Ρεμπούτσικα - Καλοκαιρινή Βροχή
TTITLE1=Γιάννης Κότσιρας - Η Πρώτη μας Φορά
TTITLE2=Διονύσης Τσακνής - Σαλτάρω στο Κενό
TTITLE3=Υπ'ογεια Ρεύματα - Πως Πονάει ένα Χάδι
TTITLE4=Ενδελεχεία - Βουτιά από Ψηλά
TTITLE5=Κώστας Λειβαδάς - Δειλά
TTITLE6=Βασίλης Γερμανό - - Σκλάβος σου για Πάντα
TTITLE7=Μιχάλης Κατσιγιάννης - Παράξενη Γιορτή
TTITLE8=Μανώλης Φαμέλος - Κάθε Όνειρο στον Χάρτη
TTITLE9=Ονειροπαγίδα - Θυμάμαι Κάθε Εποχή
TTITLE10=Τα φώτα σβήνουν - Φεύγει η Ζωή
TTITLE11=Μελίνα Τανάγρη - Ότι Χάνεις
TTITLE12=Μαρία Παπαδοπούλου - Φεγγαροστόλιστο
EXTD=
EXTT0=
EXTT1=
EXTT2=
EXTT3=
EXTT4=
EXTT5=
EXTT6=
EXTT7=
EXTT8=
EXTT9=
EXTT10=
EXTT11=
EXTT12=
PLAYORDER=
